  <svg
      width="80"
      height="80"
      viewBox="0 0 80 80"
      fill="none"
      xmlns="http://www.w3.org/2000/svg"
    >
      <g clipPath="url(#clip0_15_172)">
        <path
          d="M0 39.9997C0 28.9544 4.4771 18.954 11.7159 11.7159C18.9546 4.4771 28.9544 0 39.9997 0C51.0456 0 61.0454 4.4771 68.2841 11.7159C75.5229 18.9546 80 28.9544 80 39.9997C80 51.045 75.5229 61.0447 68.2841 68.2835C61.0454 75.5216 51.0456 79.9987 39.9997 79.9987C28.9544 79.9987 18.9546 75.5216 11.7159 68.2835C4.4771 61.0454 0 51.045 0 39.9997ZM15.8759 15.8759C9.70224 22.0496 5.88397 30.5787 5.88397 39.9997C5.88397 49.4207 9.70224 57.9498 15.8766 64.1234C22.0496 70.2971 30.5787 74.116 40.0003 74.116C49.422 74.116 57.9511 70.2978 64.1241 64.1234C70.2984 57.9504 74.1173 49.4207 74.1173 39.9997C74.1173 30.578 70.2991 22.0489 64.1241 15.8753C57.9504 9.70224 49.4207 5.88397 39.9997 5.88397C30.5787 5.88397 22.0496 9.70224 15.8759 15.8759Z"
          fill="black"
        />
        <path
          d="M63.5237 32.8395L40.3704 44.3517C40.1621 44.4549 39.9327 44.5087 39.7002 44.5087C39.4677 44.5087 39.2383 44.4549 39.03 44.3517L15.8163 32.8113C15.5694 32.6882 15.3606 32.5003 15.2123 32.2676C15.0639 32.035 14.9816 31.7664 14.9742 31.4906C14.9667 31.2148 15.0344 30.9422 15.17 30.7019C15.3056 30.4616 15.504 30.2627 15.7439 30.1264L38.9576 17.1248C39.1865 16.995 39.4451 16.9268 39.7083 16.9268C39.9714 16.9268 40.2301 16.995 40.459 17.1248L63.6767 30.1264C63.9227 30.2645 64.1254 30.4684 64.262 30.7153C64.3985 30.9622 64.4636 31.2423 64.4498 31.5241C64.436 31.8059 64.3439 32.0782 64.1839 32.3106C64.0238 32.5429 63.8022 32.7261 63.5438 32.8395H63.5237ZM59.591 49.3149C59.2382 49.1227 58.9762 48.7982 58.8626 48.4129C58.7489 48.0275 58.7931 47.6128 58.9852 47.26C59.1774 46.9071 59.5019 46.6451 59.8872 46.5315C60.2726 46.4179 60.6873 46.462 61.0401 46.6542L63.6203 48.0147C63.9762 48.2022 64.2432 48.5233 64.3624 48.9075C64.4817 49.2917 64.4435 49.7075 64.2563 50.0636C64.103 50.3604 63.8571 50.5992 63.5559 50.7438L40.3704 62.2561C40.1621 62.3593 39.9327 62.413 39.7002 62.413C39.4677 62.413 39.2383 62.3593 39.03 62.2561L15.8163 50.7156C15.4607 50.5374 15.1893 50.2265 15.0605 49.8501C14.9318 49.4737 14.956 49.0618 15.128 48.703C15.2633 48.4091 15.4909 48.1674 15.7761 48.0147L18.1912 46.7508C18.5292 46.5668 18.9245 46.5184 19.2968 46.6154C19.6691 46.7125 19.9905 46.9477 20.1956 47.2733C20.4007 47.5989 20.4741 47.9903 20.4008 48.3681C20.3276 48.7458 20.1132 49.0815 19.8013 49.3068L39.7022 59.1969L59.591 49.3068V49.3149ZM59.6514 40.1534C59.4005 39.8979 59.2482 39.5618 59.2217 39.2047C59.1952 38.8476 59.2961 38.4926 59.5067 38.2029C59.7172 37.9132 60.0236 37.7076 60.3714 37.6225C60.7192 37.5374 61.086 37.5784 61.4064 37.7382L63.6163 38.9015C63.8663 39.0325 64.0748 39.2309 64.218 39.4741C64.3612 39.7174 64.4336 39.9958 64.4269 40.278C64.4202 40.5602 64.3347 40.8349 64.1801 41.0711C64.0255 41.3073 63.8079 41.4955 63.5519 41.6145L40.3704 53.1268C40.1621 53.23 39.9327 53.2837 39.7002 53.2837C39.4677 53.2837 39.2383 53.23 39.03 53.1268L15.8163 41.5864C15.4614 41.4073 15.1907 41.0964 15.0621 40.7203C14.9334 40.3442 14.9571 39.9326 15.128 39.5737C15.264 39.2803 15.4914 39.0388 15.7761 38.8854L18.151 37.6335C18.4872 37.4441 18.883 37.3898 19.2578 37.4818C19.6326 37.5738 19.9583 37.8052 20.1685 38.1288C20.3788 38.4524 20.4579 38.844 20.3897 39.2238C20.3214 39.6037 20.1111 39.9433 19.8013 40.1735L39.7143 50.0756L59.6514 40.1534ZM39.7022 41.3006L59.6514 31.3702L39.7022 20.1881L19.7329 31.3702L39.7022 41.3006Z"
          fill="black"
        />
      </g>
      <defs>
        <clipPath id="clip0_15_172">
          <rect width="80" height="79.9994" fill="white" />
        </clipPath>
      </defs>
    </svg>