<svg
      width="80"
      height="80"
      viewBox="0 0 80 80"
      fill="none"
      xmlns="http://www.w3.org/2000/svg"
    >
      <g clip-path="url(#clip0_85_591)">
        <path
          d="M0 40C0 28.9546 4.47714 18.9541 11.716 11.716C18.9548 4.47714 28.9546 0 40 0C51.046 0 61.0459 4.47714 68.2847 11.716C75.5235 18.9548 80.0006 28.9546 80.0006 40C80.0006 51.0454 75.5235 61.0452 68.2847 68.284C61.0459 75.5222 51.046 79.9993 40 79.9993C28.9546 79.9993 18.9548 75.5222 11.716 68.284C4.47714 61.0459 0 51.0454 0 40ZM15.876 15.876C9.70232 22.0498 5.88402 30.5789 5.88402 40C5.88402 49.4211 9.70231 57.9502 15.8767 64.124C22.0498 70.2977 30.5789 74.1166 40.0006 74.1166C49.4224 74.1166 57.9515 70.2983 64.1246 64.124C70.299 57.9509 74.1179 49.4211 74.1179 40C74.1179 30.5783 70.2996 22.0491 64.1246 15.8754C57.9509 9.70232 49.4211 5.88402 40 5.88402C30.5789 5.88402 22.0498 9.70232 15.876 15.876Z"
          fill="black"
        />
        <path
          fill-rule="evenodd"
          clip-rule="evenodd"
          d="M33.6802 18.8093H63.5143C63.9627 18.8093 64.3324 19.1791 64.3324 19.6274V27.5767C64.3324 28.0251 63.9627 28.3948 63.5143 28.3948H33.6802C33.2318 28.3948 32.8621 28.029 32.8621 27.5767V19.6274C32.8621 19.1791 33.2318 18.8093 33.6802 18.8093ZM22.5018 49.9965C24.2953 49.9965 25.9237 50.7242 27.0998 51.9002C28.2758 53.0763 29.0035 54.7007 29.0035 56.4982C29.0035 58.2918 28.2758 59.9202 27.0998 61.0963C25.9237 62.2723 24.2993 63 22.5018 63C20.7042 63 19.0798 62.2723 17.9037 61.0963C16.7277 59.9202 16 58.2918 16 56.4982C16 54.7047 16.7277 53.0763 17.9037 51.9002C19.0798 50.7242 20.7042 49.9965 22.5018 49.9965ZM25.2315 53.7646C24.5313 53.0645 23.5677 52.6318 22.5018 52.6318C21.4358 52.6318 20.4682 53.0645 19.772 53.7646C19.0719 54.4647 18.6392 55.4284 18.6392 56.4943C18.6392 57.5602 19.0719 58.5278 19.772 59.228C20.4722 59.9281 21.4358 60.3608 22.5057 60.3608C23.5755 60.3608 24.5392 59.9281 25.2354 59.228C25.9355 58.5278 26.3682 57.5642 26.3682 56.4943C26.3643 55.4323 25.9316 54.4647 25.2315 53.7646ZM33.6802 51.8058H63.5143C63.9627 51.8058 64.3324 52.1716 64.3324 52.6239V60.5732C64.3324 61.0215 63.9627 61.3913 63.5143 61.3913H33.6802C33.2318 61.3913 32.8621 61.0255 32.8621 60.5732V52.6239C32.8621 52.1755 33.2318 51.8058 33.6802 51.8058ZM22.5018 33.5002C24.2953 33.5002 25.9237 34.2279 27.0998 35.4039C28.2758 36.58 29.0035 38.2044 29.0035 40.002C29.0035 41.7956 28.2758 43.4239 27.0998 44.6C25.9198 45.7721 24.2953 46.4998 22.5018 46.4998C20.7082 46.4998 19.0798 45.7721 17.9037 44.5961C16.7277 43.42 16 41.7956 16 39.998C16 38.2044 16.7277 36.5761 17.9037 35.4C19.0798 34.2279 20.7042 33.5002 22.5018 33.5002ZM25.2315 37.2683C24.5313 36.5682 23.5677 36.1355 22.5018 36.1355C21.4358 36.1355 20.4682 36.5682 19.772 37.2683C19.0719 37.9684 18.6392 38.9321 18.6392 39.998C18.6392 41.064 19.0719 42.0316 19.772 42.7317C20.4722 43.4318 21.4358 43.8645 22.5018 43.8645C23.5677 43.8645 24.5353 43.4318 25.2315 42.7317C25.9316 42.0316 26.3643 41.0679 26.3643 39.998C26.3643 38.9321 25.9316 37.9684 25.2315 37.2683ZM33.6802 35.3095H63.5143C63.9627 35.3095 64.3324 35.6793 64.3324 36.1277V44.0769C64.3324 44.5253 63.9627 44.895 63.5143 44.895H33.6802C33.2318 44.895 32.8621 44.5292 32.8621 44.0769V36.1237C32.8621 35.6753 33.2318 35.3095 33.6802 35.3095ZM22.5018 21.8576C23.4103 21.8576 24.1459 22.5932 24.1459 23.5018C24.1459 24.4103 23.4103 25.1459 22.5018 25.1459C21.5932 25.1459 20.8576 24.4103 20.8576 23.5018C20.8576 22.5932 21.5932 21.8576 22.5018 21.8576ZM22.5018 17C24.2953 17 25.9237 17.7277 27.0998 18.9037C28.2758 20.0798 29.0035 21.7042 29.0035 23.5018C29.0035 25.2993 28.2758 26.9237 27.0998 28.0998C25.9237 29.2758 24.2993 30.0035 22.5018 30.0035C20.7042 30.0035 19.0798 29.2758 17.9037 28.0998C16.7277 26.9198 16 25.2953 16 23.5018C16 21.7082 16.7277 20.0798 17.9037 18.9037C19.0798 17.7277 20.7042 17 22.5018 17ZM25.2315 20.7681C24.5313 20.068 23.5677 19.6353 22.5018 19.6353C21.4358 19.6353 20.4682 20.068 19.772 20.7681C19.0719 21.4682 18.6392 22.4319 18.6392 23.4978C18.6392 24.5637 19.0719 25.5313 19.772 26.2275C20.4722 26.9277 21.4358 27.3603 22.5057 27.3603C23.5755 27.3603 24.5392 26.9277 25.2354 26.2275C25.9355 25.5274 26.3682 24.5637 26.3682 23.4978C26.3682 22.4319 25.9316 21.4682 25.2315 20.7681Z"
          fill="black"
        />
      </g>
      <defs>
        <clipPath id="clip0_85_591">
          <rect width="80.0006" height="80" fill="white" />
        </clipPath>
      </defs>
    </svg>