<svg width="80" height="80" viewBox="0 0 80 80" fill="none" xmlns="http://www.w3.org/2000/svg">
<g clipPath="url(#clip0_83_349)">
<path d="M0 40C0 28.9546 4.47714 18.9541 11.716 11.716C18.9548 4.47714 28.9546 0 40 0C51.046 0 61.0459 4.47714 68.2847 11.716C75.5235 18.9548 80.0006 28.9546 80.0006 40C80.0006 51.0454 75.5235 61.0452 68.2847 68.284C61.0459 75.5222 51.046 79.9993 40 79.9993C28.9546 79.9993 18.9548 75.5222 11.716 68.284C4.47714 61.0459 0 51.0454 0 40ZM15.876 15.876C9.70232 22.0498 5.88402 30.5789 5.88402 40C5.88402 49.4211 9.70231 57.9502 15.8767 64.124C22.0498 70.2977 30.5789 74.1166 40.0006 74.1166C49.4224 74.1166 57.9515 70.2983 64.1246 64.124C70.299 57.9509 74.1179 49.4211 74.1179 40C74.1179 30.5783 70.2996 22.0491 64.1246 15.8754C57.9509 9.70232 49.4211 5.88402 40 5.88402C30.5789 5.88402 22.0498 9.70232 15.876 15.876Z" fill="black"/>
<path fillRule="evenodd" clipRule="evenodd" d="M59.364 24.5684L55.7666 20.9706C54.8197 20.0237 53.2707 20.0237 52.323 20.9706L49.6685 23.626C48.2308 22.7236 46.6667 22.0052 45.0088 21.503V17.4087C45.0088 16.0694 43.913 14.9736 42.5741 14.9736H37.4864C36.1475 14.9736 35.0518 16.0694 35.0518 17.4087V21.1615C33.3579 21.5491 31.7493 22.1594 30.257 22.959L27.3601 20.0621C26.4133 19.1152 24.8642 19.1152 23.9174 20.0621L20.3196 23.6599C19.3727 24.6063 19.3727 26.1557 20.3196 27.103L22.9758 29.7588C22.0738 31.1957 21.3554 32.7594 20.8528 34.4169H16.7573C15.4184 34.4169 14.3226 35.5122 14.3226 36.8516V41.9392C14.3226 43.2785 15.4184 44.3739 16.7573 44.3739H20.5113C20.8985 46.0673 21.5088 47.6759 22.3084 49.1678L19.4111 52.0651C18.4642 53.012 18.4642 54.561 19.4111 55.5079L23.0085 59.1052C23.9553 60.0521 25.5043 60.0521 26.452 59.1052L29.1082 56.4486C30.5446 57.351 32.1083 58.0694 33.7659 58.572V62.6675C33.7659 64.0064 34.8617 65.1022 36.201 65.1022H41.2882C42.6275 65.1022 43.7229 64.0064 43.7229 62.6675V58.9147C45.4167 58.5272 47.0257 57.9169 48.5176 57.1173L51.4149 60.0146C52.3614 60.961 53.9108 60.961 54.8577 60.0146L58.455 56.4168C59.4019 55.4703 59.4019 53.9213 58.455 52.9736L55.7984 50.3178C56.7008 48.881 57.4192 47.3173 57.9214 45.6598H62.0169C63.3563 45.6598 64.452 44.564 64.452 43.2247V38.137C64.452 36.7981 63.3563 35.7024 62.0169 35.7024H58.2641C57.8762 34.0089 57.2663 32.4003 56.4671 30.908L59.364 28.0111C60.3108 27.0643 60.3108 25.5153 59.364 24.5684ZM49.3902 40.0381C49.3902 34.5148 44.9113 30.0354 39.3875 30.0354C33.8642 30.0354 29.3848 34.5148 29.3848 40.0381C29.3848 45.5615 33.8642 50.0408 39.3875 50.0408C44.9113 50.0408 49.3902 45.5611 49.3902 40.0381Z" fill="black"/>
</g>
<defs>
<clipPath id="clip0_83_349">
<rect width="80" height="80" fill="white"/>
</clipPath>
</defs>
</svg>
