<svg width="80" height="80" viewBox="0 0 80 80" fill="none" xmlns="http://www.w3.org/2000/svg">
<g clipPath="url(#clip0_83_337)">
<path d="M59.787 23.0932C59.787 19.1797 50.9002 16 39.8935 16C28.8869 16 20 19.1797 20 23.0932V25.5391C20 29.4526 28.8869 32.6323 39.8935 32.6323C50.9002 32.6323 59.787 29.4526 59.787 25.5391V23.0932ZM20 31.2463C20 34.3444 28.8869 36.7904 39.8935 36.7904C50.9002 36.7904 59.787 34.3444 59.787 31.2463V36.3011C59.787 40.2147 50.9002 43.3944 39.8935 43.3944C28.8869 43.3944 20 40.2147 20 36.3011V31.2463ZM20 31.2463C20 34.3444 28.8869 36.7904 39.8935 36.7904C50.9002 36.7904 59.787 34.3444 59.787 31.2463V36.3011C59.787 40.2147 50.9002 43.3944 39.8935 43.3944C28.8869 43.3944 20 40.2147 20 36.3011V31.2463ZM20 42.0083C20 45.1065 28.8869 47.5524 39.8935 47.5524C50.9002 47.5524 59.787 45.1065 59.787 42.0083V46.9817C59.787 50.8952 50.9002 54.0749 39.8935 54.0749C28.8869 54.0749 20 50.9767 20 47.1447V42.0083ZM20 52.8519C20 55.9501 28.9684 58.396 39.8935 58.396C50.8186 58.396 59.787 55.9501 59.787 52.8519V57.9068C59.787 61.8203 50.9002 65 39.8935 65C28.8869 65 20 61.8203 20 57.9068V52.8519Z" fill="black"/>
<path d="M0 40C0 28.9546 4.47714 18.9541 11.716 11.716C18.9548 4.47714 28.9546 0 40 0C51.046 0 61.0459 4.47714 68.2847 11.716C75.5235 18.9548 80.0006 28.9546 80.0006 40C80.0006 51.0454 75.5235 61.0452 68.2847 68.284C61.0459 75.5222 51.046 79.9993 40 79.9993C28.9546 79.9993 18.9548 75.5222 11.716 68.284C4.47714 61.0459 0 51.0454 0 40ZM15.876 15.876C9.70232 22.0498 5.88402 30.5789 5.88402 40C5.88402 49.4211 9.70231 57.9502 15.8767 64.124C22.0498 70.2977 30.5789 74.1166 40.0006 74.1166C49.4224 74.1166 57.9515 70.2983 64.1246 64.124C70.299 57.9509 74.1179 49.4211 74.1179 40C74.1179 30.5783 70.2996 22.0491 64.1246 15.8754C57.9509 9.70232 49.4211 5.88402 40 5.88402C30.5789 5.88402 22.0498 9.70232 15.876 15.876Z" fill="black"/>
</g>
<defs>
<clipPath id="clip0_83_337">
<rect width="80" height="80" fill="white"/>
</clipPath>
</defs>
</svg>
