 <svg
      width="80"
      height="80"
      viewBox="0 0 80 80"
      fill="none"
      xmlns="http://www.w3.org/2000/svg"
    >
      <g clipPath="url(#clip0_17_201)">
        <path
          d="M0 40C0 28.9546 4.47714 18.9541 11.716 11.716C18.9548 4.47714 28.9546 0 40 0C51.046 0 61.0459 4.47714 68.2847 11.716C75.5235 18.9548 80.0006 28.9546 80.0006 40C80.0006 51.0454 75.5235 61.0452 68.2847 68.284C61.0459 75.5222 51.046 79.9993 40 79.9993C28.9546 79.9993 18.9548 75.5222 11.716 68.284C4.47714 61.0459 0 51.0454 0 40ZM15.876 15.876C9.70232 22.0498 5.88402 30.5789 5.88402 40C5.88402 49.4211 9.70231 57.9502 15.8767 64.124C22.0498 70.2977 30.5789 74.1166 40.0006 74.1166C49.4224 74.1166 57.9515 70.2983 64.1246 64.124C70.299 57.9509 74.1179 49.4211 74.1179 40C74.1179 30.5783 70.2996 22.0491 64.1246 15.8754C57.9509 9.70232 49.4211 5.88402 40 5.88402C30.5789 5.88402 22.0498 9.70232 15.876 15.876Z"
          fill="black"
        />
        <path
          d="M18.9333 64.0752H35.406C35.8003 64.0754 36.1896 63.9874 36.5455 63.8175C36.8991 63.6468 37.2111 63.4008 37.4595 63.0967C37.8475 62.6229 38.0607 62.0301 38.0635 61.4177V45.0135C38.0633 44.6563 37.9907 44.3029 37.8501 43.9746C37.5752 43.3297 37.0573 42.819 36.4086 42.5532C36.0898 42.4256 35.7493 42.3613 35.406 42.364H18.9333C18.5978 42.3651 18.2656 42.4307 17.9548 42.5573C17.6391 42.6799 17.3505 42.8632 17.1052 43.0968C16.8453 43.3453 16.6384 43.6439 16.4972 43.9746C16.3509 44.3014 16.2755 44.6554 16.2758 45.0135V61.4177C16.2764 61.737 16.335 62.0535 16.4489 62.3518C16.5618 62.6464 16.7253 62.9189 16.9321 63.1571L17.0368 63.2659C17.2698 63.4988 17.5425 63.6884 17.8421 63.8256C18.1875 63.9824 18.562 64.0647 18.9414 64.0671L18.9333 64.0752ZM40.1533 26.4349L50.9042 15.6961C51.1573 15.4421 51.4622 15.2457 51.7981 15.1203C52.1397 14.9982 52.5037 14.9514 52.8651 14.9834C53.427 15.0362 53.9527 15.2841 54.3509 15.684L65.0414 26.3745C65.2724 26.6041 65.4546 26.878 65.577 27.1798C65.7551 27.6257 65.7992 28.1138 65.7041 28.5844C65.609 29.055 65.3787 29.4876 65.0414 29.8293L54.3066 40.5843C54.0867 40.8022 53.827 40.9758 53.5416 41.0956C53.2569 41.2209 52.9505 41.2893 52.6396 41.297C52.3078 41.3053 51.9777 41.2464 51.6692 41.1238C51.3585 41.0054 51.0769 40.8214 50.8438 40.5843L40.1533 29.8817C39.7366 29.4632 39.485 28.9085 39.4446 28.3194V28.1905C39.4421 27.8654 39.5038 27.543 39.6261 27.2417C39.7484 26.9405 39.9289 26.6663 40.1573 26.4349H40.1533ZM18.9333 38.9978H35.406C35.7995 38.998 36.1882 38.9102 36.5435 38.7409C36.8987 38.5717 37.2117 38.3251 37.4595 38.0193C37.6552 37.7796 37.8066 37.5069 37.9065 37.214C38.0093 36.9286 38.0624 36.6276 38.0635 36.3242V19.9401C38.0628 19.583 37.9902 19.2297 37.8501 18.9012C37.5761 18.2548 37.058 17.7426 36.4086 17.4758C36.0951 17.3488 35.7602 17.2832 35.4221 17.2826H18.9333C18.5978 17.2837 18.2656 17.3493 17.9548 17.4758C17.6391 17.5985 17.3505 17.7818 17.1052 18.0154C16.8453 18.2638 16.6384 18.5625 16.4972 18.8932C16.3499 19.2225 16.2744 19.5793 16.2758 19.9401V36.3443C16.2763 36.6623 16.335 36.9775 16.4489 37.2744C16.5609 37.5694 16.7245 37.8421 16.9321 38.0797L17.0368 38.1884C17.2698 38.4214 17.5425 38.611 17.8421 38.7481C18.1875 38.9049 18.562 38.9873 18.9414 38.9897L18.9333 38.9978ZM35.41 36.3523H18.9333V19.928C20.3466 19.928 35.414 19.928 35.4422 19.928C35.4422 21.3131 35.4422 36.3362 35.4422 36.3443L35.41 36.3523ZM44.361 64.0752H60.8337C61.228 64.0754 61.6174 63.9874 61.9732 63.8175C62.3268 63.6468 62.6388 63.4008 62.8872 63.0967C63.2752 62.6229 63.4884 62.0301 63.4912 61.4177V45.0135C63.4905 44.6577 63.4179 44.3057 63.2778 43.9786C63 43.3291 62.4757 42.8165 61.8202 42.5532C61.5068 42.4263 61.1719 42.3606 60.8337 42.36H44.361C43.6815 42.3671 43.0293 42.6286 42.533 43.0928C42.2725 43.3424 42.0657 43.6425 41.925 43.9746C41.7781 44.3026 41.7026 44.6581 41.7035 45.0175V61.4217C41.7041 61.741 41.7628 62.0575 41.8766 62.3559C41.9895 62.6504 42.1531 62.9229 42.3598 63.1612L42.4645 63.2699C42.6975 63.5029 42.9702 63.6924 43.2698 63.8296C43.6152 63.9864 43.9898 64.0687 44.3691 64.0712L44.361 64.0752ZM60.8377 61.4297H44.361V45.0135C45.7743 45.0135 60.8417 45.0135 60.8699 45.0135C60.8699 46.3986 60.8699 61.4217 60.8699 61.4297H60.8377ZM35.41 61.4297H18.9333V45.0054C20.3466 45.0054 35.414 45.0054 35.4422 45.0054C35.4422 46.3905 35.4422 61.4136 35.4422 61.4217L35.41 61.4297Z"
          fill="black"
        />
      </g>
      <defs>
        <clipPath id="clip0_17_201">
          <rect width="80.0006" height="80" fill="white" />
        </clipPath>
      </defs>
    </svg>