 <svg
      width="80"
      height="80"
      viewBox="0 0 80 80"
      fill="none"
      xmlns="http://www.w3.org/2000/svg"
    >
      <g clipPath="url(#clip0_15_188)">
        <path
          d="M0 40C0 28.9546 4.47714 18.9541 11.716 11.716C18.9548 4.47714 28.9546 0 40 0C51.046 0 61.0459 4.47714 68.2847 11.716C75.5235 18.9548 80.0006 28.9546 80.0006 40C80.0006 51.0454 75.5235 61.0452 68.2847 68.284C61.0459 75.5222 51.046 79.9993 40 79.9993C28.9546 79.9993 18.9548 75.5222 11.716 68.284C4.47714 61.0459 0 51.0454 0 40ZM15.876 15.876C9.70232 22.0498 5.88402 30.5789 5.88402 40C5.88402 49.4211 9.70231 57.9502 15.8767 64.124C22.0498 70.2977 30.5789 74.1166 40.0006 74.1166C49.4224 74.1166 57.9515 70.2983 64.1246 64.124C70.299 57.9509 74.1179 49.4211 74.1179 40C74.1179 30.5783 70.2996 22.0491 64.1246 15.8754C57.9509 9.70232 49.4211 5.88402 40 5.88402C30.5789 5.88402 22.0498 9.70232 15.876 15.876Z"
          fill="black"
        />
        <path
          d="M16.0915 22.1204L39.3082 14.3896C39.5856 14.2958 39.8753 14.304 40.1323 14.3937V14.3896L63.6549 22.4467C64.2342 22.6425 64.585 23.2055 64.532 23.7889C64.5361 23.8175 64.5361 23.8501 64.5361 23.8827V51.2401H64.532C64.532 51.7133 64.2709 52.1703 63.8181 52.3987L40.4627 64.2661C40.2669 64.3844 40.0344 64.4538 39.7896 64.4538C39.5285 64.4538 39.2878 64.3762 39.0838 64.2457L15.6754 52.0356C15.2348 51.8031 14.9778 51.3543 14.9778 50.8852H14.9738V23.4095C14.9738 22.7527 15.4592 22.2101 16.0915 22.1204ZM21.2277 42.1631C21.2277 41.6654 21.6316 41.2575 22.1333 41.2575C22.6311 41.2575 23.039 41.6614 23.039 42.1631V45.847C23.039 45.8755 23.039 45.9082 23.0349 45.9367C23.0349 46.0632 23.0512 46.1652 23.0798 46.2427C23.092 46.2672 23.1043 46.2916 23.1288 46.308L25.3847 47.3564C25.8376 47.5645 26.0334 48.103 25.8253 48.5517C25.6173 49.0045 25.0829 49.2004 24.63 48.9923L22.321 47.9194C22.2802 47.9031 22.2394 47.8827 22.1986 47.8541C21.8274 47.6216 21.5704 47.3074 21.4113 46.9199C21.2848 46.6098 21.2277 46.2672 21.2318 45.9V45.8429V42.1631H21.2277ZM38.4882 61.0106V34.8444L17.5765 25.3636V50.1019L38.4882 61.0106ZM61.9293 25.6736L41.091 34.8567V61.0351L61.9293 50.4446V25.6736ZM39.7039 16.9883L19.9263 23.5768L39.7978 32.5885L59.6692 23.8297L39.7039 16.9883Z"
          fill="black"
        />
      </g>
      <defs>
        <clipPath id="clip0_15_188">
          <rect width="80.0006" height="80" fill="white" />
        </clipPath>
      </defs>
    </svg>