<svg width="80" height="80" viewBox="0 0 80 80" fill="none" xmlns="http://www.w3.org/2000/svg">
<g clipPath="url(#clip0_91_335)">
<path d="M0 40C0 28.9546 4.47714 18.9541 11.716 11.716C18.9548 4.47714 28.9546 0 40 0C51.046 0 61.0459 4.47714 68.2847 11.716C75.5235 18.9548 80.0006 28.9546 80.0006 40C80.0006 51.0454 75.5235 61.0452 68.2847 68.284C61.0459 75.5222 51.046 79.9993 40 79.9993C28.9546 79.9993 18.9548 75.5222 11.716 68.284C4.47714 61.0459 0 51.0454 0 40ZM15.876 15.876C9.70232 22.0498 5.88402 30.5789 5.88402 40C5.88402 49.4211 9.70231 57.9502 15.8767 64.124C22.0498 70.2977 30.5789 74.1166 40.0006 74.1166C49.4224 74.1166 57.9515 70.2983 64.1246 64.124C70.299 57.9509 74.1179 49.4211 74.1179 40C74.1179 30.5783 70.2996 22.0491 64.1246 15.8754C57.9509 9.70232 49.4211 5.88402 40 5.88402C30.5789 5.88402 22.0498 9.70232 15.876 15.876Z" fill="black"/>
<path d="M28.7699 21.0024C28.3325 21.0483 27.9277 21.255 27.6342 21.5826C27.3407 21.9102 27.1795 22.3352 27.1818 22.775V26.9111H21.8637C21.8022 26.9079 21.7405 26.9079 21.679 26.9111C21.2416 26.9569 20.8368 27.1638 20.5433 27.4914C20.2498 27.819 20.0886 28.2439 20.0909 28.6838V32.8198H14.7728C14.7112 32.8166 14.6496 32.8166 14.5881 32.8198C14.1506 32.8657 13.7459 33.0725 13.4524 33.4001C13.1589 33.7277 12.9977 34.1526 13 34.5925V58.2274C13.0001 58.6975 13.1869 59.1484 13.5193 59.4808C13.8517 59.8132 14.3026 60 14.7728 60H50.2273C50.6974 60 51.1483 59.8132 51.4808 59.4808C51.8132 59.1484 52 58.6975 52 58.2274V54.0913H57.3182C57.7884 54.0912 58.2392 53.9045 58.5717 53.5721C58.9041 53.2396 59.0909 52.7888 59.0909 52.3186V48.1825H64.4091C64.8793 48.1825 65.3301 47.9957 65.6626 47.6633C65.995 47.3309 66.1818 46.88 66.1819 46.4099V22.775C66.1818 22.3049 65.995 21.8541 65.6626 21.5217C65.3301 21.1892 64.8793 21.0025 64.4091 21.0024H28.9546C28.8931 20.9992 28.8314 20.9992 28.7699 21.0024ZM30.7273 24.5476H62.6364V44.6373H59.0909V28.6838C59.0909 28.2136 58.9041 27.7628 58.5717 27.4303C58.2392 27.0979 57.7884 26.9111 57.3182 26.9111H30.7273V24.5476ZM23.6364 30.4563H28.6591C28.7569 30.4707 28.8557 30.4769 28.9546 30.4748L55.5455 30.4563V46.4099C55.5423 46.4714 55.5423 46.5331 55.5455 46.5946V50.5461H52V34.5925C52 34.1223 51.8132 33.6715 51.4808 33.3391C51.1483 33.0067 50.6974 32.8199 50.2273 32.8198H23.6364V30.4563ZM16.5455 36.3651H21.5682C21.666 36.3794 21.7648 36.3856 21.8637 36.3835L48.4546 36.3651V52.3186C48.4514 52.3802 48.4514 52.4418 48.4546 52.5033V56.4548H16.5455V36.3651ZM38.2983 38.7101C38.0405 38.7273 37.7896 38.8007 37.5631 38.9251C37.3366 39.0495 37.1401 39.2219 36.9872 39.4302L29.4716 49.4566L27.9574 47.6286C27.8084 47.4488 27.6254 47.3 27.4189 47.1909C27.2123 47.0818 26.9863 47.0145 26.7537 46.9929C26.5212 46.9712 26.2866 46.9957 26.0635 47.0648C25.8404 47.1339 25.633 47.2462 25.4534 47.3955C25.2738 47.5448 25.1253 47.7281 25.0166 47.9348C24.9078 48.1415 24.8409 48.3676 24.8196 48.6002C24.7984 48.8328 24.8232 49.0673 24.8927 49.2903C24.9621 49.5133 25.0749 49.7204 25.2245 49.8998L28.179 53.445C28.3504 53.6518 28.5666 53.8171 28.8113 53.9282C29.0559 54.0392 29.3226 54.0933 29.5911 54.0861C29.8597 54.079 30.1232 54.0109 30.3616 53.8871C30.6 53.7632 30.8071 53.5868 30.9674 53.3711L39.831 41.5537C40.0377 41.2826 40.1619 40.9577 40.1887 40.6179C40.2155 40.278 40.1437 39.9376 39.982 39.6375C39.8202 39.3374 39.5754 39.0904 39.2768 38.9259C38.9781 38.7614 38.6384 38.6865 38.2983 38.7101Z" fill="black"/>
</g>
<defs>
<clipPath id="clip0_91_335">
<rect width="80.0006" height="80" fill="white"/>
</clipPath>
</defs>
</svg>
