<svg width="76" height="76" viewBox="0 0 76 76" fill="none" xmlns="http://www.w3.org/2000/svg">
<path d="M22.2396 11.0034C21.6227 11.068 21.0519 11.3597 20.638 11.8217C20.2241 12.2837 19.9967 12.883 20 13.5032V19.3362H12.5C12.4133 19.3316 12.3264 19.3316 12.2396 19.3362C11.6227 19.4008 11.0519 19.6925 10.638 20.1545C10.2241 20.6165 9.99672 21.2158 10 21.8361V27.669H2.50004C2.41329 27.6645 2.32637 27.6645 2.23962 27.669C1.62271 27.7337 1.05186 28.0253 0.637977 28.4873C0.224091 28.9493 -0.00328054 29.5486 3.57723e-05 30.1688V63.5002C0.000105361 64.1632 0.26352 64.799 0.732347 65.2678C1.20117 65.7366 1.83702 65.9999 2.50004 66H52.5C53.1631 65.9999 53.7989 65.7366 54.2677 65.2678C54.7366 64.799 55 64.1632 55 63.5002V57.6672H62.5001C63.1631 57.6671 63.7989 57.4037 64.2677 56.935C64.7366 56.4662 65 55.8303 65.0001 55.1673V49.3343H72.5001C73.1631 49.3343 73.7989 49.0709 74.2677 48.6021C74.7366 48.1333 75 47.4975 75.0001 46.8345V13.5032C75 12.8403 74.7366 12.2045 74.2677 11.7357C73.7989 11.2669 73.1631 11.0035 72.5001 11.0034H22.5C22.4133 10.9989 22.3264 10.9989 22.2396 11.0034ZM25 16.0031H70.0001V44.3346H65.0001V21.8361C65 21.1731 64.7366 20.5372 64.2677 20.0684C63.7989 19.5996 63.1631 19.3362 62.5001 19.3362H25V16.0031ZM15 24.3359H22.0834C22.2213 24.3561 22.3607 24.3649 22.5 24.3619L60 24.3359V46.8345C59.9955 46.9212 59.9955 47.0082 60 47.0949V52.6675H55V30.1688C55 29.5059 54.7366 28.8701 54.2677 28.4013C53.7989 27.9325 53.1631 27.6691 52.5 27.669H15V24.3359ZM5.00004 32.6687H12.0834C12.2213 32.689 12.3607 32.6977 12.5 32.6947L50 32.6687V55.1673C49.9955 55.2541 49.9955 55.341 50 55.4277V61.0003H5.00004V32.6687ZM35.6771 35.9758C35.3135 36.0001 34.9597 36.1036 34.6403 36.279C34.3209 36.4544 34.0437 36.6976 33.8282 36.9914L23.2292 51.1311L21.0938 48.5532C20.8837 48.2995 20.6256 48.0898 20.3343 47.9359C20.043 47.7821 19.7243 47.6872 19.3963 47.6566C19.0683 47.6261 18.7375 47.6606 18.4229 47.758C18.1082 47.8554 17.8158 48.0139 17.5625 48.2245C17.3091 48.435 17.0998 48.6934 16.9464 48.9849C16.7931 49.2764 16.6987 49.5953 16.6687 49.9233C16.6387 50.2514 16.6737 50.5821 16.7717 50.8965C16.8696 51.211 17.0287 51.5031 17.2396 51.7561L21.4063 56.7557C21.648 57.0475 21.9529 57.2805 22.2979 57.4372C22.6429 57.5938 23.019 57.67 23.3978 57.6599C23.7765 57.6499 24.1481 57.5539 24.4843 57.3792C24.8205 57.2045 25.1126 56.9557 25.3386 56.6515L37.8386 39.986C38.1302 39.6037 38.3053 39.1455 38.3431 38.6662C38.3808 38.1869 38.2796 37.7069 38.0515 37.2837C37.8234 36.8605 37.4781 36.5121 37.057 36.2801C36.6358 36.0481 36.1568 35.9424 35.6771 35.9758Z" fill="black"/>
</svg>
