<svg width="800" height="800" viewBox="0 0 800 800" fill="none" xmlns="http://www.w3.org/2000/svg">
<path d="M685.01 150.621C685.01 94.5541 557.692 49 400.005 49C242.318 49 115 94.5541 115 150.621V185.662C115 241.729 242.318 287.283 400.005 287.283C557.692 287.283 685.01 241.729 685.01 185.662V150.621ZM115 267.426C115 311.812 242.318 346.854 400.005 346.854C557.692 346.854 685.01 311.812 685.01 267.426V339.845C685.01 395.912 557.692 441.466 400.005 441.466C242.318 441.466 115 395.912 115 339.845V267.426ZM115 267.426C115 311.812 242.318 346.854 400.005 346.854C557.692 346.854 685.01 311.812 685.01 267.426V339.845C685.01 395.912 557.692 441.466 400.005 441.466C242.318 441.466 115 395.912 115 339.845V267.426ZM115 421.609C115 465.995 242.318 501.037 400.005 501.037C557.692 501.037 685.01 465.995 685.01 421.609V492.86C685.01 548.927 557.692 594.481 400.005 594.481C242.318 594.481 115 550.095 115 495.196C115 495.196 115 421.609 115 421.609ZM115 576.96C115 621.346 243.486 656.388 400.005 656.388C556.524 656.388 685.01 621.346 685.01 576.96V649.379C685.01 705.446 557.692 751 400.005 751C242.318 751 115 705.446 115 649.379V576.96Z" fill="#323232"/>
</svg>
