<svg width="131" height="125" viewBox="0 0 131 125" fill="none" xmlns="http://www.w3.org/2000/svg">
<path fill-rule="evenodd" clip-rule="evenodd" d="M45.0313 25.0715C45.0313 21.6281 47.9657 18.8334 51.5813 18.8334C55.1969 18.8334 58.1313 21.6281 58.1313 25.0715C58.1313 28.515 55.1969 31.3096 51.5813 31.3096C47.9657 31.3096 45.0313 28.515 45.0313 25.0715ZM104.8 93.6906C104.8 97.134 101.866 99.9287 98.25 99.9287H32.75C29.1344 99.9287 26.2 97.134 26.2 93.6906C26.2 90.2471 29.1344 87.4525 32.75 87.4525H98.25C101.866 87.4525 104.8 90.2471 104.8 93.6906ZM104.8 68.7382C104.8 72.1816 101.866 74.9763 98.25 74.9763H32.75C29.1344 74.9763 26.2 72.1816 26.2 68.7382C26.2 65.2948 29.1344 62.5001 32.75 62.5001H98.25C101.866 62.5001 104.8 65.2948 104.8 68.7382ZM117.9 106.167C117.9 109.61 114.966 112.405 111.35 112.405H19.65C16.0344 112.405 13.1 109.61 13.1 106.167V44.0603C13.1 43.2307 13.4472 42.4382 14.0563 41.8581L26.2 30.2927V37.5477C26.2 44.4408 32.0623 50.0239 39.3 50.0239H91.7C98.9378 50.0239 104.8 44.4408 104.8 37.5477V12.5953H111.35C114.966 12.5953 117.9 15.39 117.9 18.8334V106.167ZM39.3 17.8165L43.826 13.5061C44.4352 12.9259 45.2736 12.5953 46.1382 12.5953H91.7V31.3096C91.7 34.753 88.7656 37.5477 85.15 37.5477H45.85C42.2344 37.5477 39.3 34.753 39.3 31.3096V17.8165ZM117.9 0.119141H42.11C40.3742 0.119141 38.7105 0.774092 37.4856 1.94062L1.94535 35.7198C0.71395 36.8925 0.0261999 38.4771 0.0261999 40.1364L0 112.405C0 119.292 5.86225 124.881 13.0934 124.881H117.9C125.138 124.881 131 119.298 131 112.405V12.5953C131 5.70224 125.138 0.119141 117.9 0.119141Z" fill="#323232"/>
</svg>
